<?xml version="1.0" standalone="no"?>
<!DOCTYPE svg PUBLIC "-//W3C//DTD SVG 20010904//EN"
 "http://www.w3.org/TR/2001/REC-SVG-20010904/DTD/svg10.dtd">
<svg version="1.0" xmlns="http://www.w3.org/2000/svg"
 width="700.000000pt" height="700.000000pt" viewBox="0 0 700.000000 700.000000"
 preserveAspectRatio="xMidYMid meet">
<metadata>
Created by potrace 1.14, written by Peter Selinger 2001-2017
</metadata>
<g transform="translate(0.000000,700.000000) scale(0.100000,-0.100000)"
fill="#000000" stroke="none">
<path d="M4115 6989 c-93 -21 -166 -29 -263 -29 -119 0 -273 -15 -352 -35
-101 -25 -263 -34 -537 -30 -198 2 -295 8 -360 20 -74 14 -128 16 -343 10
-140 -3 -280 -10 -310 -15 -30 -5 -104 -12 -165 -15 -60 -4 -148 -14 -195 -22
-47 -9 -115 -15 -151 -14 -116 2 -192 -38 -233 -122 -26 -54 -39 -124 -112
-607 -29 -195 -59 -360 -79 -440 -2 -8 -4 -18 -4 -22 -1 -4 -8 -5 -16 -2 -9 4
-15 0 -15 -7 0 -12 -2 -12 -9 0 -5 8 -14 10 -21 6 -7 -4 -27 -10 -43 -12 -29
-3 -50 -20 -42 -33 2 -3 -8 -10 -21 -17 -13 -6 -24 -7 -24 -2 0 5 -4 9 -10 9
-5 0 -10 -8 -10 -17 0 -14 -2 -15 -9 -5 -7 11 -9 11 -14 -2 -4 -9 -11 -16 -17
-16 -5 0 -19 -9 -30 -20 -11 -11 -27 -20 -36 -20 -8 0 -13 -4 -10 -8 2 -4 -9
-17 -25 -27 -16 -11 -27 -25 -25 -32 3 -7 -3 -15 -14 -18 -10 -3 -29 -20 -42
-36 -13 -17 -33 -44 -46 -60 -13 -16 -21 -32 -18 -37 6 -9 -24 -74 -39 -84 -6
-5 -5 -8 3 -8 9 0 10 -5 3 -19 -6 -10 -11 -36 -13 -57 -1 -21 -8 -45 -15 -52
-7 -8 -10 -19 -6 -25 12 -20 10 -47 -4 -58 -10 -9 -10 -15 -2 -25 9 -11 8 -14
-1 -14 -10 0 -10 -3 0 -15 7 -8 8 -15 3 -15 -5 0 -10 -7 -10 -15 0 -8 3 -15 7
-15 10 0 0 -52 -12 -67 -5 -7 -7 -17 -4 -22 4 -5 1 -13 -5 -16 -5 -4 -7 -14
-4 -24 11 -26 13 -75 3 -82 -4 -3 -10 -19 -11 -36 -2 -16 -7 -35 -11 -41 -3
-6 -2 -13 4 -17 6 -4 8 -10 5 -14 -2 -5 -7 -23 -10 -42 -11 -74 -23 -119 -35
-134 -10 -12 -10 -15 1 -15 9 -1 7 -7 -7 -18 -19 -16 -41 -96 -35 -129 1 -7
-6 -12 -16 -11 -10 1 -43 -3 -73 -9 -30 -7 -94 -17 -142 -23 l-88 -12 0 -2099
0 -2099 3500 0 3500 0 0 3500 0 3500 -1422 -1 c-783 -1 -1441 -5 -1463 -10z
m-1335 -486 c4 -54 12 -98 19 -106 10 -9 12 -9 11 3 -7 50 0 54 27 15 15 -21
28 -34 30 -28 3 7 12 9 20 6 13 -5 15 -2 10 12 -6 15 -5 16 8 5 9 -7 13 -15
11 -18 -6 -6 84 -92 96 -92 4 0 7 6 6 13 -2 6 3 11 10 9 9 -2 11 4 7 18 -7 21
-6 21 32 -3 68 -42 64 -41 57 -10 l-7 28 22 -19 c16 -14 21 -16 21 -5 1 12 3
11 13 -1 20 -25 39 -24 32 2 -6 22 -6 22 14 -2 16 -19 21 -21 21 -8 0 18 35
14 47 -5 4 -6 1 -7 -7 -2 -8 5 -11 4 -6 -3 4 -6 13 -9 21 -5 10 3 15 -1 16
-13 0 -11 6 -3 12 16 l10 35 9 -50 c6 -34 17 -57 34 -70 26 -22 45 -85 25 -85
-9 0 -8 -5 2 -15 8 -8 18 -43 23 -77 l7 -63 19 60 c13 42 16 75 12 111 -5 45
-3 55 15 73 12 12 26 19 31 16 6 -3 9 2 7 12 -1 10 2 19 7 20 5 1 13 7 18 15
7 10 11 10 15 1 8 -20 23 -15 23 7 0 11 5 20 10 20 6 0 10 -4 10 -10 0 -14 27
-13 32 1 3 8 10 6 20 -5 21 -20 32 -21 24 -1 -4 11 1 15 19 15 14 0 25 5 25
11 0 5 4 8 9 5 5 -4 12 0 14 6 3 7 6 2 6 -11 1 -24 1 -24 16 -5 8 10 15 27 15
36 0 9 5 20 12 24 6 4 8 3 4 -4 -3 -6 -2 -13 4 -17 5 -3 13 7 16 22 l7 28 10
-30 c9 -27 11 -28 18 -10 7 18 8 17 9 -5 l1 -25 19 24 c11 13 20 29 20 36 0 7
7 18 15 25 13 11 15 7 15 -25 0 -29 3 -35 13 -27 9 8 12 -3 11 -51 -1 -69 -32
-150 -63 -167 -10 -5 -22 -21 -25 -35 -4 -14 -13 -25 -20 -25 -8 0 -17 -15
-20 -35 -4 -19 -12 -35 -18 -35 -6 0 -8 -3 -5 -7 4 -3 3 -11 -2 -17 -4 -6 -11
-24 -15 -41 -7 -28 -6 -29 7 -11 17 23 47 30 47 10 0 -8 5 -14 11 -14 8 0 9
-16 5 -51 -5 -39 -4 -49 5 -43 9 5 10 2 6 -9 -4 -11 -1 -17 8 -17 19 0 47 -30
42 -44 -3 -8 5 -11 24 -8 16 2 29 9 29 16 0 6 7 2 15 -8 8 -11 15 -14 15 -8 0
7 5 12 11 12 6 0 1 -16 -11 -36 -12 -19 -20 -38 -16 -41 3 -4 6 -1 6 5 0 7 5
12 11 12 6 0 8 -9 4 -21 -7 -20 -7 -20 22 -3 15 10 30 21 33 24 8 9 59 40 65
40 12 0 -48 -49 -66 -55 -11 -4 -19 -10 -19 -13 0 -11 98 -5 129 7 35 13 113
24 86 11 -23 -10 -5 -13 20 -4 13 5 10 10 -15 25 -17 11 -37 16 -43 12 -8 -4
-8 -2 1 9 11 14 7 17 -35 26 -26 6 -65 14 -85 17 -21 3 -38 10 -38 14 0 14 64
22 109 15 29 -5 41 -3 41 6 0 7 7 10 15 6 8 -3 15 -1 15 4 0 6 -19 10 -43 10
-24 0 -52 7 -63 15 -23 17 -15 19 98 24 26 1 41 7 48 20 9 17 7 19 -10 16 -11
-2 -20 0 -20 6 0 5 5 9 10 9 16 0 90 49 90 60 0 16 -25 11 -47 -10 -19 -17
-23 -17 -34 -4 -10 13 -15 13 -36 -1 -14 -9 -34 -18 -46 -20 -11 -3 -24 -10
-29 -17 -4 -7 -8 -8 -8 -3 0 6 14 25 30 43 32 35 40 53 15 32 -9 -7 -18 -11
-20 -8 -7 7 34 48 48 48 7 0 6 -4 -3 -10 -8 -5 -10 -10 -4 -10 6 0 17 7 24 15
7 8 9 15 4 15 -12 0 19 20 31 20 6 0 3 -5 -5 -10 -12 -8 -11 -10 7 -10 13 0
29 11 39 25 9 14 20 22 25 19 5 -3 12 2 15 10 3 9 12 16 20 16 18 0 18 24 -1
40 -8 7 -12 17 -8 23 4 6 -1 8 -13 5 -18 -5 -20 0 -18 39 0 25 6 48 11 51 6 4
15 17 22 30 7 12 16 20 21 17 6 -3 25 1 43 10 19 9 45 14 58 11 13 -3 35 -7
48 -10 22 -5 50 -32 51 -50 0 -4 6 -6 13 -3 33 12 49 -199 22 -280 -17 -50
-13 -131 6 -144 8 -5 26 -7 40 -5 15 3 30 2 34 -2 4 -4 19 -7 33 -8 70 -1 93
-5 87 -13 -3 -5 9 -21 27 -36 21 -17 26 -24 13 -20 -53 19 -83 25 -162 31 -52
4 -79 10 -71 15 7 5 9 9 3 9 -22 0 -32 -17 -28 -45 2 -16 5 -36 5 -42 1 -7 5
-13 10 -13 4 0 8 -16 8 -35 0 -33 1 -34 30 -28 19 3 30 1 30 -5 0 -6 -6 -9
-12 -7 -7 3 -24 -4 -38 -15 -25 -19 -25 -20 -3 -20 12 0 25 -4 28 -10 10 -16
65 -12 65 4 0 8 6 16 13 19 9 3 8 8 -3 22 -14 17 -13 18 23 11 26 -5 44 -3 53
5 12 10 15 10 12 -2 -2 -8 7 -15 21 -17 13 -2 37 -16 52 -31 l27 -28 -26 5
c-15 3 -29 8 -32 12 -3 4 -20 10 -37 13 -25 5 -33 3 -33 -8 0 -7 12 -15 28
-17 l27 -4 -35 -16 -35 -16 28 -7 c15 -4 27 -14 27 -22 0 -10 -6 -12 -22 -8
-22 7 -22 6 -6 -10 9 -10 25 -18 35 -20 10 -1 31 -7 47 -13 16 -7 38 -14 49
-16 12 -1 23 -8 25 -15 3 -10 0 -10 -17 -1 -12 6 -27 9 -34 6 -8 -3 -6 -5 3
-5 8 -1 26 -10 40 -21 14 -11 34 -20 46 -20 11 0 34 -11 50 -25 16 -14 33 -25
37 -25 5 0 6 -4 3 -8 -3 -5 10 -24 29 -42 18 -18 31 -39 28 -46 -3 -9 2 -14
12 -14 9 0 19 -8 22 -19 3 -10 14 -24 26 -30 21 -11 21 -11 -3 -5 -22 6 -23 5
-11 -10 12 -15 8 -20 -11 -17 -5 0 -8 -4 -8 -10 0 -6 7 -9 15 -5 8 3 25 -5 38
-17 12 -12 18 -19 13 -14 -21 15 -24 6 -10 -29 14 -33 14 -35 -4 -25 -10 5
-25 18 -33 28 -12 16 -11 16 9 -1 12 -11 22 -15 22 -11 0 12 -31 45 -42 45 -6
0 -18 10 -29 23 -17 20 -18 20 -12 2 6 -18 5 -18 -10 -6 -9 7 -23 11 -31 8 -7
-3 -24 1 -35 10 -12 8 -25 13 -28 10 -3 -3 20 -22 51 -42 31 -19 56 -42 56
-50 0 -8 14 -22 30 -32 17 -10 28 -23 26 -29 -2 -6 1 -17 7 -23 8 -8 8 -11 -2
-11 -8 0 -2 -12 13 -31 14 -17 26 -34 26 -38 0 -5 12 -21 28 -36 26 -27 26
-28 5 -23 -31 8 -29 -6 2 -20 14 -6 25 -18 25 -25 0 -19 45 -59 55 -50 5 5 4
1 -3 -8 -6 -9 -8 -19 -4 -24 4 -4 -3 -2 -15 6 -18 11 -25 11 -35 1 -11 -11 -9
-12 6 -6 13 5 17 4 12 -4 -4 -7 -1 -12 8 -12 10 0 13 -6 10 -15 -4 -8 -16 -15
-28 -15 -20 -1 -20 -1 -3 -14 13 -10 15 -16 7 -21 -8 -5 -8 -11 -2 -17 6 -6 8
-17 5 -24 -3 -8 2 -26 12 -40 18 -28 14 -44 -8 -26 -11 9 -14 8 -14 -6 0 -9 7
-23 16 -30 9 -8 11 -11 6 -8 -6 2 -17 1 -25 -5 -11 -6 -6 -9 17 -9 17 0 35 -4
38 -10 4 -6 -7 -10 -25 -10 l-30 0 16 -26 c15 -22 15 -27 3 -35 -10 -6 -10 -9
-1 -9 6 0 12 -7 12 -15 0 -12 -4 -13 -19 -6 -10 6 -21 7 -25 4 -3 -3 -6 -2 -6
4 0 6 -11 11 -25 11 -29 0 -33 -13 -7 -27 10 -6 12 -11 4 -11 -9 0 -10 -5 -2
-19 14 -27 13 -31 -7 -24 -16 6 -15 3 2 -17 18 -22 16 -21 -13 3 -19 15 -43
27 -55 26 -12 0 -17 -3 -10 -5 7 -3 9 -12 6 -20 -3 -8 0 -14 6 -14 8 0 9 -6 3
-17 -11 -25 -8 -59 9 -80 12 -14 12 -16 0 -8 -10 5 -12 4 -7 -3 4 -7 17 -12
29 -12 l22 -1 -23 -12 c-17 -10 -19 -16 -10 -25 9 -9 9 -18 0 -37 -10 -21 -9
-25 6 -25 10 0 13 -3 7 -8 -14 -10 -13 -37 2 -37 20 0 27 -14 9 -21 -9 -3 -14
-10 -11 -14 3 -5 0 -12 -5 -15 -7 -5 -5 -11 6 -19 14 -11 12 -13 -20 -11 -39
1 -43 -3 -23 -24 10 -11 9 -12 -2 -6 -11 6 -13 4 -8 -8 3 -10 2 -17 -4 -17 -6
0 -8 -4 -4 -9 3 -5 1 -12 -4 -15 -5 -4 -3 -19 6 -37 13 -26 13 -33 2 -40 -11
-6 -9 -12 6 -29 10 -11 24 -19 31 -16 8 3 11 -2 9 -13 -2 -10 3 -31 10 -45 8
-15 10 -24 6 -21 -5 3 -20 1 -33 -4 -12 -6 -18 -10 -12 -10 7 -1 19 -13 29
-27 16 -26 16 -26 -7 -19 l-23 6 24 -20 c18 -16 19 -21 7 -21 -9 0 -17 1 -19
3 -1 1 -10 -5 -19 -13 -11 -11 -13 -19 -6 -27 7 -9 7 -13 -1 -13 -9 0 -9 -5 0
-21 8 -15 8 -19 0 -15 -21 13 -11 -5 17 -29 15 -13 22 -25 16 -25 -6 0 -23 11
-38 25 -25 23 -26 23 -26 4 0 -11 4 -18 9 -15 8 6 20 -12 17 -25 0 -3 5 -13
13 -22 12 -15 11 -17 -7 -17 -29 0 -37 -19 -16 -35 13 -10 15 -14 5 -15 -10 0
-11 -3 -2 -14 13 -15 0 -29 -29 -31 -8 -1 -25 -2 -38 -3 -13 -1 -20 -6 -17
-12 3 -6 -4 -10 -17 -10 -18 0 -20 -2 -8 -10 12 -8 10 -10 -9 -10 -23 0 -23
-1 -7 -25 15 -23 15 -25 -1 -25 -15 0 -16 -2 -3 -10 21 -13 5 -23 -19 -11 -13
8 -22 8 -26 1 -4 -6 -10 -8 -15 -5 -4 3 -10 -2 -14 -10 -3 -9 0 -15 9 -15 21
0 19 -30 -2 -31 -15 0 -15 -2 2 -9 19 -8 19 -9 1 -9 -20 -1 -20 -1 0 -16 19
-14 19 -14 -2 -15 -11 0 -24 -3 -27 -6 -9 -10 12 -44 27 -44 7 0 13 -7 13 -15
0 -9 -6 -14 -14 -11 -10 4 -10 1 0 -17 6 -12 17 -25 22 -29 7 -5 6 -8 -1 -8
-5 0 -19 7 -30 15 -36 27 -39 14 -4 -16 30 -26 31 -30 11 -24 -15 5 -21 3 -17
-3 3 -6 0 -13 -6 -15 -7 -3 -2 -6 12 -6 18 -1 21 -4 11 -10 -8 -5 -10 -14 -5
-22 6 -12 5 -12 -9 0 -20 15 -22 8 -6 -20 7 -15 7 -24 -1 -34 -8 -10 -8 -19 0
-34 8 -16 8 -21 -2 -21 -7 0 0 -12 15 -25 l28 -25 -33 5 c-18 3 -27 3 -20 -1
18 -9 15 -24 -5 -17 -11 4 -14 3 -9 -5 4 -7 1 -12 -9 -12 -9 0 -13 -5 -10 -11
4 -6 -2 -13 -13 -16 -13 -3 -22 -16 -26 -37 -5 -24 -12 -32 -28 -33 -27 -2
-68 -23 -68 -34 0 -5 7 -6 15 -3 11 5 13 2 9 -10 -3 -9 -10 -14 -14 -11 -5 3
-12 0 -16 -6 -4 -8 3 -9 27 -4 l34 7 -28 -26 c-22 -21 -26 -30 -18 -40 9 -11
5 -15 -20 -20 -32 -6 -31 -26 2 -26 21 0 26 -16 7 -23 -13 -5 -7 -8 38 -22 8
-3 12 -9 9 -15 -4 -6 6 -10 22 -10 l28 -1 -23 -13 c-21 -11 -22 -14 -7 -26 13
-10 13 -15 3 -21 -9 -6 -5 -9 12 -10 25 -1 25 -1 2 -7 -26 -8 -26 -28 1 -25
25 4 21 -4 -10 -21 l-28 -14 30 -13 c17 -6 39 -12 50 -11 11 0 14 -2 8 -5 -20
-8 -15 -23 8 -23 11 0 18 -4 15 -9 -3 -5 -16 -7 -29 -4 -18 4 -19 3 -7 -6 11
-8 12 -11 2 -11 -21 0 -45 -27 -29 -33 6 -3 1 -6 -13 -6 -14 -1 -20 -5 -15 -9
13 -9 18 -35 5 -27 -5 3 -10 -2 -10 -11 0 -10 -3 -15 -6 -11 -3 3 -12 1 -19
-6 -10 -9 -9 -14 4 -24 9 -6 13 -15 9 -19 -4 -4 -13 -2 -20 3 -18 14 -68 22
-68 11 0 -5 7 -11 17 -15 14 -5 13 -7 -5 -14 -15 -6 -20 -13 -15 -25 5 -14 3
-15 -15 -5 -34 18 -39 12 -9 -12 27 -21 27 -23 8 -24 -12 -1 -21 2 -21 7 0 5
-10 15 -22 21 -20 11 -21 10 -10 -3 10 -13 9 -15 -12 -11 -24 5 -46 -14 -30
-26 5 -3 15 -14 23 -23 12 -16 11 -18 -8 -18 -12 0 -21 6 -21 15 0 8 -7 15
-15 15 -9 0 -15 -6 -14 -13 4 -30 -2 -39 -20 -34 -15 4 -18 1 -13 -12 5 -14 3
-14 -10 -3 -18 15 -34 0 -22 -20 5 -7 2 -9 -7 -6 -12 5 -14 -1 -11 -26 5 -28
3 -30 -12 -17 -14 12 -16 11 -16 -3 0 -9 -4 -16 -10 -16 -5 0 -10 -7 -10 -16
0 -13 -3 -14 -14 -5 -17 15 -27 -8 -21 -52 2 -17 -1 -25 -8 -20 -6 4 -8 0 -4
-11 6 -14 3 -15 -13 -6 -19 10 -20 7 -20 -35 0 -56 -15 -89 -37 -80 -9 3 -20
1 -23 -6 -5 -8 -40 3 -111 34 -57 24 -117 47 -132 51 -37 9 -71 -1 -59 -17 5
-7 9 -28 9 -47 0 -19 -2 -29 -4 -22 -3 6 -16 12 -29 12 -18 0 -24 -5 -22 -17
2 -12 -5 -19 -21 -21 -18 -3 -21 -6 -11 -12 11 -7 11 -11 1 -24 -8 -9 -20 -16
-27 -16 -18 0 -18 -8 1 -27 21 -20 9 -36 -17 -22 -18 10 -24 8 -38 -9 -9 -11
-25 -20 -36 -19 -14 2 -20 -5 -22 -25 -2 -16 -8 -25 -16 -22 -12 5 -47 -35
-59 -69 -3 -9 -18 -22 -32 -29 -14 -6 -25 -15 -25 -19 0 -13 -42 -49 -52 -43
-4 3 -8 1 -8 -4 0 -6 -10 -13 -22 -16 -13 -3 -31 -18 -42 -32 -15 -22 -16 -28
-5 -35 11 -7 11 -9 -3 -9 -9 0 -19 -6 -21 -12 -4 -10 -8 -9 -16 2 -8 11 -11
12 -11 2 0 -7 -4 -10 -10 -7 -5 3 -19 -10 -31 -29 -23 -39 -31 -46 -23 -18 3
9 -2 5 -10 -9 -16 -28 -66 -45 -77 -27 -4 7 -9 6 -13 -1 -4 -6 -11 -9 -16 -6
-5 3 -11 1 -15 -5 -3 -5 -19 -10 -36 -10 -26 0 -31 -5 -28 -27 0 -3 -6 -10
-15 -15 -8 -5 -13 -15 -9 -23 3 -9 0 -22 -6 -29 -17 -21 -64 -2 -97 37 -18 21
-34 31 -47 29 -18 -3 -19 -1 -9 11 10 12 7 18 -23 36 -32 18 -35 19 -36 3 -1
-9 -1 -21 0 -25 1 -5 -10 0 -25 12 -25 19 -27 27 -31 123 -3 63 -11 114 -20
132 -10 19 -13 42 -9 70 5 31 4 37 -5 26 -8 -11 -9 -6 -5 24 5 38 5 38 -15 20
-23 -21 -24 -27 7 96 8 30 14 61 14 70 0 8 11 32 25 53 14 20 23 42 20 47 -8
14 -55 13 -55 -1 0 -15 -56 -69 -64 -62 -3 4 -6 -3 -6 -15 0 -11 -5 -24 -10
-27 -6 -3 -10 -1 -10 4 0 6 -4 11 -10 11 -5 0 -10 -7 -10 -15 0 -15 -19 -55
-31 -65 -3 -3 -9 -14 -12 -24 -4 -10 -10 -16 -14 -12 -3 3 -14 -8 -24 -24 -11
-17 -26 -30 -34 -30 -8 0 -15 -4 -15 -10 0 -22 -31 -8 -42 18 l-11 27 -6 -24
c-10 -37 -54 -45 -80 -15 -12 13 -21 29 -21 34 0 7 -7 7 -20 0 -14 -7 -20 -7
-20 0 0 5 -6 10 -14 10 -7 0 -19 7 -26 15 -7 8 -22 15 -34 15 -14 0 -17 3 -8
8 9 6 8 13 -6 28 -19 20 -26 60 -13 69 11 6 1 55 -10 55 -5 0 -9 -4 -9 -10 0
-5 -5 -10 -11 -10 -6 0 -8 9 -4 21 4 12 8 32 10 46 1 13 7 29 14 36 18 18 12
28 -10 16 -15 -8 -19 -8 -15 0 17 27 -14 7 -61 -39 -57 -55 -75 -64 -48 -23
10 14 27 42 38 62 19 32 19 34 3 21 -18 -14 -18 -13 -11 9 4 13 8 29 10 35 1
6 5 19 9 28 4 9 3 25 -3 36 -8 16 -7 21 5 26 14 5 14 8 -1 22 -14 15 -13 19
20 55 19 21 35 43 35 48 0 5 9 13 20 16 11 3 20 13 20 21 0 8 11 19 24 23 26
10 43 41 23 42 -8 0 -7 2 2 6 11 5 11 7 0 14 -11 7 -11 9 -1 9 7 0 10 5 7 10
-3 6 0 10 7 10 10 0 11 2 0 8 -10 7 -10 14 1 35 8 15 17 24 20 20 4 -3 7 -1 7
5 0 7 7 12 16 12 8 0 12 5 9 10 -3 5 1 10 9 10 9 0 15 3 15 8 -4 25 4 45 26
64 19 16 22 24 14 35 -9 10 -8 13 5 13 9 0 16 7 16 15 0 8 6 15 13 15 8 0 7 4
-3 10 -8 5 -11 10 -6 10 6 0 5 5 -2 12 -16 16 -15 28 3 28 8 0 15 7 15 16 0
16 -11 16 -54 -2 -14 -5 -17 -4 -12 4 4 7 2 12 -3 12 -19 0 -12 17 12 28 l22
11 -25 1 c-24 1 -23 2 10 20 33 18 34 20 13 26 -13 3 -21 10 -18 14 3 5 0 12
-5 15 -7 4 5 22 29 44 27 25 41 46 40 62 0 15 -3 19 -6 9 -7 -17 -74 -79 -86
-80 -4 0 0 12 10 28 13 20 14 24 3 16 -8 -7 -32 -19 -54 -28 -31 -13 -37 -13
-33 -2 4 10 0 12 -16 8 -19 -5 -18 -2 8 21 49 44 84 81 80 85 -5 6 -85 -60
-85 -70 0 -4 -8 -8 -17 -8 -14 0 -11 6 12 24 17 13 30 29 30 35 0 5 9 17 20
25 19 14 19 15 -5 12 -26 -2 -74 -25 -54 -26 5 0 16 6 23 13 10 9 13 9 10 0
-7 -21 -113 -83 -121 -70 -4 6 -2 17 4 24 20 24 -8 13 -32 -12 -13 -14 -28
-25 -34 -25 -6 0 17 25 52 56 34 31 62 60 62 66 0 5 -7 2 -16 -6 -8 -9 -21
-16 -27 -16 -23 0 31 42 57 44 15 2 33 9 39 16 10 10 8 10 -10 1 -51 -26 -38
0 15 30 20 11 52 31 71 44 19 14 44 25 57 25 14 0 31 12 45 32 l23 31 -30 -7
c-27 -7 -28 -6 -9 7 11 8 30 18 43 22 15 4 21 12 18 21 -4 10 3 14 27 15 25 0
28 2 13 8 -18 7 -16 9 13 19 19 7 30 16 26 22 -6 10 -34 -2 -70 -32 -62 -51
-130 -97 -134 -92 -3 3 5 14 19 23 14 9 38 29 55 45 l30 28 -28 -16 c-15 -9
-32 -14 -37 -11 -6 3 -10 3 -10 -2 0 -4 -29 -21 -64 -37 -36 -17 -62 -34 -59
-39 4 -6 1 -7 -7 -2 -10 6 -4 16 21 37 19 16 27 26 19 22 -10 -5 -9 -1 4 14
l18 21 -33 -9 c-45 -13 -45 -13 -24 10 10 11 21 17 25 15 5 -3 10 -2 12 3 1 4
16 17 32 30 36 27 23 28 -32 2 -53 -26 -64 -25 -32 2 l25 21 -32 -6 c-40 -8
-42 -2 -5 17 15 9 21 15 11 16 -8 0 -19 -4 -25 -9 -5 -5 -18 -12 -30 -15 -17
-5 -20 -2 -20 21 1 32 14 56 26 48 5 -3 11 -1 15 5 9 15 -22 12 -57 -6 -18 -9
-27 -11 -23 -4 4 7 26 21 49 32 22 11 30 17 16 13 -73 -17 -77 -17 -84 0 -5
14 -4 16 7 6 11 -9 21 -7 43 5 l29 16 -32 -6 c-24 -4 -31 -2 -29 10 1 8 13 21
27 27 13 7 24 19 24 27 0 8 8 18 18 22 10 4 17 16 15 25 -2 12 3 17 16 16 11
-1 25 5 33 13 12 12 11 14 -10 14 -14 0 -30 7 -37 15 -17 21 -37 19 -45 -5 -9
-28 -59 -60 -92 -59 -27 2 -27 2 -3 6 32 6 52 23 46 39 -3 7 2 15 10 18 9 3
12 11 8 17 -4 8 -9 7 -15 -2 -6 -10 -9 -7 -9 11 0 23 -5 26 -37 28 -20 2 -42
10 -49 20 -19 25 -17 34 6 22 27 -15 70 14 70 46 0 21 -5 24 -40 24 -22 0 -40
-4 -40 -9 0 -16 -48 -63 -54 -53 -2 4 6 21 20 37 13 15 24 32 24 37 0 4 8 8
17 8 10 0 -2 11 -27 24 -56 30 -65 52 -11 25 44 -21 66 -25 56 -9 -3 6 -1 10
4 10 6 0 11 -4 11 -10 0 -14 13 -12 36 6 18 15 18 15 -5 8 -16 -4 -21 -3 -17
5 4 6 0 11 -8 11 -9 0 -16 5 -16 11 0 7 -12 9 -36 4 -24 -4 -34 -3 -29 4 3 6
17 11 31 11 13 0 24 4 24 10 0 5 -13 7 -31 3 -29 -6 -31 -4 -24 18 7 22 7 22
-10 6 -10 -10 -15 -21 -11 -24 7 -7 -12 -33 -24 -33 -4 0 -6 12 -4 26 4 39 56
72 67 42 2 -7 4 1 4 18 0 27 -3 30 -24 26 -14 -3 -28 -14 -33 -26 -8 -18 -9
-17 -7 8 1 22 8 31 30 39 l29 10 -32 13 c-44 19 -61 18 -53 -3 5 -14 3 -16 -7
-6 -8 8 -20 9 -36 3 -27 -11 -29 -7 -14 21 13 23 2 24 -28 3 -22 -15 -22 -15
-10 10 6 14 16 26 22 27 6 1 -7 7 -29 14 -28 9 -33 14 -17 14 21 1 33 31 12
31 -5 0 -10 -3 -10 -8 0 -4 -22 -7 -50 -7 -48 0 -64 8 -37 18 6 3 -7 8 -31 12
-24 4 -39 11 -34 14 9 6 32 45 32 54 0 8 -23 2 -49 -12 -19 -11 -23 -11 -19 1
2 7 22 22 44 32 21 11 43 25 47 33 4 7 18 13 30 13 12 1 33 7 47 15 14 8 41
15 60 15 40 0 80 19 45 21 -11 0 3 9 30 19 59 22 84 25 68 9 -10 -10 -32 -16
-60 -18 -7 -1 -13 -8 -13 -16 0 -11 5 -13 18 -6 28 14 65 29 90 36 12 4 22 13
22 21 0 8 4 14 10 14 5 0 7 -6 4 -14 -4 -11 0 -13 15 -9 12 3 24 9 27 14 3 5
23 9 45 9 21 0 47 4 57 10 21 12 105 40 109 36 3 -3 -26 -18 -73 -37 -17 -7
-36 -20 -42 -30 -9 -15 -6 -16 36 -12 l47 4 -40 -25 c-48 -31 -42 -33 26 -6
36 15 55 18 63 10 7 -7 6 -10 -3 -10 -7 0 -10 -4 -7 -9 4 -5 2 -20 -3 -34 -8
-21 -6 -26 15 -36 13 -6 24 -15 24 -21 0 -5 10 -10 23 -11 12 0 16 -3 10 -6
-25 -9 -13 -25 15 -19 l27 5 -25 -12 c-45 -22 -76 -49 -62 -54 10 -4 8 -9 -5
-19 -14 -10 -14 -13 -4 -14 11 0 9 -4 -5 -15 -18 -14 -18 -14 6 -15 14 0 21
-4 15 -8 -5 -4 -12 -16 -13 -27 -2 -11 -9 -24 -15 -28 -7 -6 -5 -6 7 -3 10 4
25 1 33 -6 13 -10 12 -13 -4 -19 -11 -5 0 -8 31 -8 27 -1 46 -4 43 -8 -4 -3
-2 -12 4 -19 9 -11 5 -16 -17 -25 -16 -6 -23 -13 -16 -16 6 -3 10 -9 6 -14 -3
-5 2 -9 11 -9 10 0 13 -5 9 -12 -7 -11 4 -10 51 7 20 7 20 6 1 -9 -13 -11 -15
-16 -6 -16 7 0 11 -3 7 -6 -3 -3 -1 -12 5 -18 9 -10 21 -3 51 26 39 37 54 48
42 28 -3 -5 -1 -10 4 -10 14 0 14 -46 0 -73 -20 -36 -47 -60 -63 -54 -20 8 0
64 32 84 12 9 22 19 22 25 0 10 -21 -5 -52 -39 -12 -13 -28 -23 -35 -23 -8 0
-12 -4 -8 -9 3 -6 -3 -15 -12 -21 -16 -10 -16 -11 4 -7 13 3 21 0 20 -6 -1 -6
8 -13 21 -15 16 -2 22 -8 18 -19 -5 -12 1 -14 32 -8 29 4 42 2 51 -9 7 -9 17
-13 22 -10 5 3 9 0 9 -7 0 -8 4 -8 13 -1 7 6 22 10 32 8 11 -2 31 8 45 21 32
32 60 47 60 33 0 -6 7 -4 16 4 8 9 24 16 34 16 10 0 22 5 25 10 4 6 11 8 16 5
5 -4 12 1 15 9 3 9 14 16 23 15 10 0 11 -2 4 -6 -7 -2 -13 -9 -13 -14 0 -6 4
-8 8 -5 5 3 16 -22 26 -55 20 -72 65 -164 101 -208 43 -50 64 -36 26 17 -18
24 -25 55 -22 90 1 17 28 15 50 -5 11 -10 31 -27 45 -38 26 -20 35 -45 15 -45
-16 0 -6 -35 11 -36 8 -1 21 -2 28 -3 8 0 12 -7 9 -13 -4 -12 -9 -14 -50 -17
-10 0 -15 -5 -12 -11 8 -13 120 -13 164 0 19 5 45 20 59 32 37 34 81 108 75
124 -3 8 0 35 6 61 17 67 15 181 -4 228 -24 59 -36 87 -52 118 -8 15 -11 32
-8 37 4 6 4 18 0 28 -5 14 -8 14 -15 2 -6 -10 -14 -11 -32 -4 -13 6 -33 9 -45
8 -13 -1 -23 3 -23 7 0 5 15 9 34 9 42 0 68 9 60 21 -3 5 3 9 12 9 16 0 15 2
-2 21 -18 20 -18 20 11 14 27 -6 28 -5 10 7 -11 7 -24 13 -29 13 -5 0 -11 6
-14 14 -3 10 0 12 12 8 11 -4 15 -3 11 4 -4 5 1 21 10 36 24 35 22 134 -2 198
-28 72 -69 91 -185 88 -51 -2 -90 2 -93 8 -5 7 -11 6 -20 -1 -9 -7 -27 -9 -47
-5 -18 4 -30 4 -26 0 26 -27 -104 -42 -136 -16 -9 8 -16 26 -16 42 0 16 -5 29
-12 29 -7 0 -5 5 5 11 9 6 15 14 12 19 -3 4 9 21 26 38 17 17 28 35 25 41 -4
5 -2 12 4 16 6 4 8 10 5 14 -2 5 9 11 25 15 29 5 42 26 18 26 -7 0 -4 7 7 16
17 13 18 16 5 25 -11 8 -6 9 19 5 29 -5 32 -4 21 9 -10 12 -9 15 6 16 18 0 18
1 -1 9 -11 5 -14 9 -6 9 20 1 -6 31 -27 31 -8 0 -13 3 -9 6 3 4 24 -1 47 -10
56 -22 59 -20 20 13 -19 16 -39 27 -45 24 -5 -3 -5 0 2 7 10 11 17 10 37 -3
29 -20 42 -8 21 19 -16 22 -20 38 -6 29 5 -3 13 4 16 16 l7 22 22 -25 c11 -13
17 -17 11 -9 -7 10 -6 16 3 18 6 3 12 11 12 19 0 8 5 14 11 14 7 0 9 10 5 28
-3 15 -9 52 -12 82 -6 61 -26 111 -61 153 -13 16 -23 35 -23 42 0 14 -84 90
-98 90 -15 0 -150 122 -166 150 -9 17 -37 43 -61 60 -25 16 -47 36 -50 44 -6
15 -4 14 81 -48 38 -28 32 -19 -32 45 -44 43 -89 84 -99 91 -18 11 -18 11 5 6
l25 -4 -27 18 c-16 10 -28 21 -28 25 0 9 28 -1 55 -19 45 -30 44 -10 -1 32
-27 25 -47 45 -44 45 3 0 32 -14 64 -30 32 -17 64 -30 71 -30 17 0 56 -40 49
-51 -3 -6 6 -22 20 -36 29 -29 36 -18 9 13 -29 32 -26 61 3 35 5 -4 -16 18
-47 49 -30 31 -63 60 -73 63 -9 4 -15 11 -11 16 3 6 -2 14 -11 19 -12 7 -6 8
21 7 20 -1 42 -8 48 -16 8 -9 5 -8 -8 1 -18 14 -19 14 -6 -2 15 -20 47 -25 35
-6 -5 8 -2 9 10 5 12 -5 5 11 -21 45 -32 46 -34 51 -13 37 14 -9 29 -25 35
-37 5 -12 16 -24 23 -27 8 -3 10 0 5 8 -4 6 -8 19 -8 27 0 8 -6 25 -13 37 -7
12 -12 28 -12 36 0 8 -9 22 -21 33 -11 10 -25 28 -30 39 -6 11 8 0 30 -24 23
-24 39 -47 36 -50 -2 -4 2 -8 10 -8 19 0 19 2 -2 35 l-17 27 23 -20 24 -20 -8
25 c-4 14 -14 36 -22 50 -9 14 -10 20 -3 13 14 -13 43 -6 34 9 -3 5 -8 19 -10
31 -10 60 -22 105 -37 134 -25 47 -65 104 -72 103 -12 -2 -64 75 -55 80 5 3
-5 26 -21 50 -30 44 -31 46 -24 136 6 81 4 96 -14 132 -27 54 -27 66 1 23 17
-26 23 -56 28 -128z m1521 -2 c-7 -11 -24 -27 -39 -35 -15 -8 -37 -24 -49 -36
-27 -25 -30 -14 -5 17 19 24 95 83 100 78 2 -2 -1 -13 -7 -24z m-329 -71 c-2
-16 -6 -30 -8 -30 -2 0 -4 14 -4 30 0 17 4 30 8 30 5 0 7 -13 4 -30z m-1603
-24 c8 -5 16 -4 20 2 15 25 131 -17 152 -55 15 -28 33 -30 26 -3 -6 22 -5 23
17 14 9 -3 14 -9 11 -14 -2 -4 2 -16 10 -26 14 -18 15 -18 21 5 7 22 7 22 23
-12 19 -41 41 -68 50 -63 4 3 8 -7 9 -22 1 -14 10 -37 19 -51 29 -44 51 -91
43 -91 -11 0 0 -39 18 -67 9 -15 10 -23 3 -23 -6 0 -11 3 -11 8 -1 4 -12 21
-26 37 l-26 30 17 -35 c9 -19 21 -44 27 -55 8 -16 4 -14 -18 6 -16 14 -38 29
-48 33 -20 7 -20 7 0 -15 19 -22 19 -22 -4 -16 -23 6 -24 5 -6 -16 10 -12 27
-29 38 -38 18 -15 31 -49 20 -49 -3 0 -19 7 -37 15 l-32 16 30 -25 c17 -14 34
-26 38 -26 5 0 5 -5 2 -10 -4 -6 -11 -8 -16 -5 -11 7 0 -24 15 -44 9 -12 8
-13 -6 -9 -23 9 -31 -3 -10 -18 35 -25 3 -24 -36 2 -40 26 -98 39 -107 24 -3
-4 8 -14 24 -21 22 -11 26 -18 20 -34 -4 -11 -8 -15 -8 -10 -1 6 -6 3 -11 -5
-7 -12 -13 -13 -28 -3 -12 7 -24 8 -33 2 -11 -7 -10 -9 4 -9 10 0 16 -4 12 -9
-3 -6 -14 -8 -25 -6 -11 2 -20 0 -20 -6 0 -5 9 -9 19 -9 11 0 23 -4 26 -10 3
-5 19 -10 34 -10 16 0 35 -7 42 -17 13 -15 12 -15 -7 -5 -18 10 -26 8 -47 -12
-19 -18 -35 -23 -66 -22 l-41 2 30 -19 c16 -10 30 -20 30 -20 0 -1 -13 -3 -30
-4 -77 -5 -89 -7 -84 -14 2 -4 -16 -15 -41 -25 -47 -18 -59 -34 -25 -34 11 0
20 -4 20 -10 0 -5 -8 -10 -17 -10 -10 0 -36 -5 -58 -12 -38 -11 -39 -12 -15
-19 19 -5 20 -7 6 -8 -11 -1 -16 -4 -13 -7 4 -4 20 -1 36 6 25 10 33 10 45 -3
13 -13 12 -15 -14 -21 -22 -4 -30 -11 -30 -26 0 -11 -4 -20 -9 -20 -5 0 -12
-7 -15 -16 -5 -13 -2 -15 14 -10 57 17 65 18 35 1 -38 -21 -77 -28 -139 -26
-47 1 -49 0 -30 -14 18 -15 18 -15 -8 -9 -28 6 -40 -9 -15 -19 9 -4 8 -8 -3
-17 -13 -10 -13 -11 3 -6 9 3 17 4 17 2 0 -3 3 -11 6 -20 4 -11 1 -16 -10 -16
-16 0 -96 -37 -96 -43 0 -2 30 6 68 18 81 27 154 41 132 26 -8 -6 -24 -11 -35
-11 -11 0 -28 -12 -39 -26 l-19 -26 24 7 c13 4 31 10 39 13 13 5 13 4 0 -9 -8
-9 -24 -20 -35 -27 -17 -10 -18 -11 -2 -12 9 0 17 -3 17 -6 0 -10 -41 -44 -54
-45 -6 -1 -21 -3 -34 -4 -13 -1 -31 -10 -40 -19 -15 -15 -14 -16 13 -16 l30
-1 -24 -13 -24 -13 31 -5 c17 -2 38 0 47 5 29 16 27 1 -4 -32 -28 -30 -26 -35
10 -32 11 1 16 -8 17 -34 1 -19 -2 -35 -6 -35 -5 0 -18 -13 -30 -29 l-22 -30
28 2 c20 2 27 -2 26 -15 -1 -10 3 -18 8 -18 6 0 5 -6 -2 -15 -7 -8 -10 -15 -7
-15 4 0 3 -10 -2 -22 -5 -13 -14 -23 -22 -23 -25 0 -133 -38 -150 -52 -8 -7
-24 -13 -35 -13 -18 1 -18 1 -1 14 9 7 17 17 17 21 0 4 -7 2 -16 -6 -13 -10
-17 -10 -25 2 -13 21 -11 29 9 29 9 0 25 7 36 15 17 13 15 14 -20 9 -29 -4
-35 -3 -24 5 12 9 11 11 -7 11 -13 0 -23 -4 -23 -9 0 -10 -58 -36 -66 -29 -2
3 9 11 26 18 37 16 39 30 3 31 -21 1 -23 2 -8 6 11 3 25 10 30 15 7 8 6 9 -3
3 -9 -5 -12 -1 -10 11 2 16 -5 20 -42 22 -93 7 -89 6 -77 21 9 11 3 13 -36 10
-38 -3 -48 -1 -53 13 -3 11 -15 18 -30 18 -16 0 -23 4 -18 11 3 6 0 15 -7 20
-11 7 -9 9 6 9 19 1 19 1 2 11 -10 6 -24 8 -32 5 -9 -3 -12 0 -8 10 3 8 2 14
-3 13 -5 -1 -18 -1 -29 0 -18 2 -17 3 6 16 15 8 29 21 33 30 4 13 2 14 -14 5
-27 -14 -32 -12 -21 9 13 23 4 33 -19 21 -15 -8 -17 -6 -13 13 3 12 15 30 27
39 20 17 20 18 2 18 -18 0 -18 1 -1 20 10 11 24 20 30 20 15 0 68 40 61 47 -2
2 -24 -5 -48 -16 l-43 -21 30 26 c17 14 41 34 55 46 14 11 38 25 55 31 45 15
72 36 78 57 3 11 3 20 0 20 -8 0 -76 -43 -91 -57 -27 -26 -32 -12 -8 20 15 19
26 38 26 43 0 17 84 64 125 71 36 6 38 7 15 14 l-25 7 25 1 c14 1 39 10 57 19
35 19 123 98 123 111 0 20 80 42 166 45 105 4 167 27 142 52 -8 8 -28 16 -46
18 -17 3 -38 9 -48 14 -14 8 -14 10 5 15 12 3 19 1 15 -4 -3 -5 2 -9 10 -9 23
0 20 17 -6 31 -20 11 -84 8 -148 -6 -22 -4 -21 -3 5 9 17 9 55 15 85 16 52 0
80 12 80 33 0 6 -5 5 -12 0 -9 -7 -23 -6 -43 2 l-30 13 25 6 c14 2 41 7 61 11
45 7 59 39 26 57 -15 8 -18 13 -9 16 10 3 7 11 -10 30 l-23 25 25 -16 c29 -20
41 -22 38 -5 -5 22 34 20 58 -3 13 -12 24 -17 24 -11 0 6 -5 14 -11 17 -5 4
-14 18 -19 31 -6 14 -26 34 -45 45 -44 27 -45 33 -1 15 30 -12 34 -12 32 1 -2
8 -13 24 -27 35 l-24 19 23 -6 c25 -7 26 -11 -9 56 -10 19 -9 21 10 16 12 -3
21 -3 21 -1 0 2 -18 27 -40 56 -22 29 -40 58 -40 65 0 7 -17 24 -37 38 -22 15
-31 25 -21 25 11 0 15 6 11 20 -4 14 -1 19 8 15 9 -3 19 6 27 23 9 23 19 29
40 28 15 -1 33 -5 41 -10z m1701 -48 c0 -21 16 -24 24 -5 4 7 8 8 11 2 19 -37
23 -39 42 -25 17 13 16 13 -1 -7 -10 -13 -23 -20 -28 -17 -5 3 -17 -1 -26 -10
-18 -15 -55 -5 -39 11 5 4 12 2 16 -6 6 -9 10 -7 14 8 3 13 0 21 -8 21 -15 0
-25 22 -25 53 0 18 2 19 10 7 5 -8 10 -23 10 -32z m155 3 c-3 -6 -15 -16 -25
-21 -16 -8 -18 -8 -14 5 4 8 12 15 20 15 8 0 14 5 14 12 0 6 3 9 6 5 3 -3 3
-10 -1 -16z m-935 -11 c0 -5 -4 -10 -10 -10 -5 0 -10 5 -10 10 0 6 5 10 10 10
6 0 10 -4 10 -10z m325 -10 c3 -5 2 -10 -4 -10 -5 0 -13 5 -16 10 -3 6 -2 10
4 10 5 0 13 -4 16 -10z m375 -75 c0 -8 -4 -15 -10 -15 -5 0 -7 7 -4 15 4 8 8
15 10 15 2 0 4 -7 4 -15z m105 -102 c-4 -32 -11 -62 -17 -68 -10 -10 -8 15 8
93 10 53 17 36 9 -25z m55 -127 c0 -3 -4 -8 -10 -11 -5 -3 -10 -1 -10 4 0 6 5
11 10 11 6 0 10 -2 10 -4z m568 -18 c-2 -7 8 -14 22 -16 14 -2 32 -6 40 -9 8
-3 23 -5 34 -4 12 2 16 -2 11 -9 -8 -13 -65 -9 -109 9 -23 9 -26 14 -16 26 15
18 21 19 18 3z m-885 -13 c-3 -9 -8 -14 -10 -11 -3 3 -2 9 2 15 9 16 15 13 8
-4z m172 -128 c-15 -22 -85 -82 -85 -73 0 3 16 22 35 42 19 19 35 42 35 50 0
8 6 11 15 8 12 -5 12 -9 0 -27z m-1802 -74 c-7 -2 -21 -2 -30 0 -10 3 -4 5 12
5 17 0 24 -2 18 -5z m2720 -30 c15 2 24 0 19 -5 -11 -11 -131 -20 -157 -11
-18 5 -18 7 5 16 l25 10 -25 5 c-23 4 -23 5 -5 12 12 4 37 0 65 -12 25 -11 58
-18 73 -15z m-2696 11 c-3 -3 -12 -4 -19 -1 -8 3 -5 6 6 6 11 1 17 -2 13 -5z
m598 -32 c-3 -3 -11 0 -18 7 -9 10 -8 11 6 5 10 -3 15 -9 12 -12z m1965 -22
c14 -10 23 -21 20 -23 -3 -3 -18 6 -33 19 -33 28 -23 32 13 4z m-2693 -6 c-3
-3 -12 -4 -19 -1 -8 3 -5 6 6 6 11 1 17 -2 13 -5z m2633 -4 c8 -5 11 -10 5
-10 -5 0 -17 5 -25 10 -8 5 -10 10 -5 10 6 0 17 -5 25 -10z m181 -17 c5 -5 -7
-7 -26 -5 -19 2 -38 8 -40 13 -7 10 55 3 66 -8z m-2061 -47 c20 -25 2 -18 -28
10 -21 20 -22 24 -6 16 11 -6 26 -18 34 -26z m-44 -223 c73 -63 105 -95 101
-99 -2 -3 -26 15 -53 39 -27 24 -70 58 -96 77 -27 18 -48 35 -48 37 0 7 75
-35 96 -54z m-82 -14 c23 -11 33 -17 24 -15 -28 8 -21 -2 15 -20 17 -9 41 -27
52 -40 11 -12 40 -28 65 -35 25 -7 52 -18 61 -26 8 -7 19 -13 24 -13 4 0 24
-12 44 -27 l36 -28 -18 29 c-24 36 -19 40 16 10 15 -13 25 -24 21 -24 -4 0 5
-9 19 -20 14 -11 31 -20 39 -20 16 0 61 -77 53 -90 -4 -6 -11 -7 -17 -4 -6 4
-6 -2 1 -15 7 -11 8 -21 3 -21 -5 0 -6 -14 -4 -31 4 -25 2 -30 -9 -24 -12 8
-12 6 0 -8 14 -18 25 -77 14 -77 -3 0 -15 8 -25 17 -18 16 -19 16 -8 -11 6
-16 9 -30 7 -32 -9 -10 -45 46 -56 87 -10 37 -21 51 -52 70 -21 13 -39 28 -39
33 0 5 -8 15 -17 22 -16 12 -16 13 -1 14 9 0 37 -20 62 -45 48 -47 56 -51 56
-36 0 32 -118 110 -166 111 -11 0 -29 7 -40 15 -18 15 -18 15 6 11 14 -3 38
-7 53 -11 42 -9 24 12 -22 26 -20 6 -52 24 -71 40 -18 16 -39 29 -46 29 -8 0
-14 4 -14 9 0 5 -9 13 -20 16 -11 4 -18 10 -15 15 3 5 -3 13 -12 19 -10 6 -13
11 -7 11 6 0 22 -8 35 -19 37 -28 69 -43 69 -31 0 5 -30 25 -67 44 -38 19 -61
35 -53 35 8 0 26 -6 40 -14 36 -21 49 -18 20 5 -14 11 -30 20 -37 20 -6 0 -15
9 -18 20 -3 11 -14 20 -23 20 -9 1 -33 10 -52 21 l-35 20 34 -7 c19 -3 53 -15
75 -25z m-54 -18 c20 -9 16 -10 -25 -5 -27 4 -57 10 -65 15 -21 13 58 3 90
-10z m-63 -27 c-3 -3 -12 -4 -19 -1 -8 3 -5 6 6 6 11 1 17 -2 13 -5z m77 -19
c3 -9 0 -15 -8 -15 -7 0 -19 7 -26 15 -10 12 -9 15 8 15 11 0 22 -7 26 -15z
m153 9 c-3 -3 -12 -4 -19 -1 -8 3 -5 6 6 6 11 1 17 -2 13 -5z m-207 -8 c0 -9
-40 -13 -46 -5 -3 5 6 9 20 9 14 0 26 -2 26 -4z m82 -23 c-6 -2 -10 -9 -6 -14
3 -5 1 -9 -5 -9 -5 0 -12 4 -15 9 -6 9 10 19 29 19 6 0 4 -2 -3 -5z m-48 -69
c28 -10 64 -23 79 -31 16 -8 31 -13 34 -10 3 3 -19 17 -49 31 -29 15 -42 23
-29 20 42 -11 96 -39 99 -52 1 -7 -1 -11 -5 -11 -5 1 -21 1 -38 0 -27 -2 -24
-5 33 -32 34 -16 68 -27 74 -23 7 4 8 3 4 -4 -4 -7 9 -15 37 -23 26 -6 44 -16
44 -25 0 -13 -19 -12 -64 2 -7 2 -13 -4 -13 -12 0 -9 9 -18 20 -21 11 -3 18
-8 16 -12 -7 -10 -88 -3 -100 9 -15 15 -30 12 -18 -3 9 -11 0 -13 -46 -13 -63
1 -199 -11 -211 -18 -4 -3 -21 -1 -37 4 -16 4 -23 9 -16 9 10 1 9 6 -4 19 -17
16 -16 17 12 22 28 5 28 6 -15 19 -40 11 -43 14 -26 24 19 10 19 10 0 18 -11
4 -33 8 -50 10 -20 1 -9 6 35 14 54 10 59 13 28 14 -21 0 -38 6 -38 12 0 12
124 8 154 -6 15 -6 17 -5 11 5 -6 10 -2 11 21 6 28 -7 28 -7 9 8 -16 13 -17
15 -2 10 32 -12 17 6 -19 21 -41 17 -67 20 -44 5 11 -7 11 -10 2 -10 -7 0 -10
-4 -7 -10 3 -5 0 -10 -7 -10 -16 1 -67 29 -53 30 6 0 3 5 -5 10 -10 7 -11 10
-2 10 7 0 15 -7 18 -15 4 -8 12 -15 20 -15 17 0 19 20 2 21 -18 2 41 16 71 18
13 0 46 -6 75 -15z m181 -84 c3 -6 -1 -7 -9 -4 -18 7 -21 14 -7 14 6 0 13 -4
16 -10z m2305 -20 c14 -11 21 -20 16 -20 -5 0 -1 -9 9 -20 12 -14 14 -19 4
-15 -18 8 -74 75 -62 75 4 0 19 -9 33 -20z m-2700 -80 c0 -5 -7 -7 -15 -4 -8
4 -15 8 -15 10 0 2 7 4 15 4 8 0 15 -4 15 -10z m2791 -17 c0 -4 7 -18 15 -30
8 -13 11 -23 6 -23 -11 0 -43 56 -35 64 7 7 15 2 14 -11z m-2508 -50 c-7 -2
-19 -2 -25 0 -7 3 -2 5 12 5 14 0 19 -2 13 -5z m47 3 c0 -11 -19 -15 -25 -6
-3 5 1 10 9 10 9 0 16 -2 16 -4z m-152 -23 c-10 -2 -28 -2 -40 0 -13 2 -5 4
17 4 22 1 32 -1 23 -4z m407 -33 c10 -11 14 -20 9 -20 -5 0 -15 9 -22 20 -7
11 -11 20 -9 20 2 0 12 -9 22 -20z m2240 -10 c3 -5 1 -10 -4 -10 -6 0 -11 5
-11 10 0 6 2 10 4 10 3 0 8 -4 11 -10z m-2200 -19 c-3 -6 -11 -11 -16 -11 -5
0 -4 6 3 14 14 16 24 13 13 -3z m-1485 -147 c0 -13 -35 -33 -55 -33 -15 0 -14
3 8 11 15 5 27 14 27 19 0 5 5 9 10 9 6 0 10 -3 10 -6z m260 -29 c0 -2 -10
-13 -22 -25 l-22 -20 32 0 c18 0 32 -4 32 -9 0 -4 12 -6 28 -4 l27 5 -30 -26
c-16 -14 -40 -25 -52 -26 -12 0 -39 -9 -60 -20 -48 -25 -96 -16 -101 19 -5 31
53 91 87 92 15 0 35 4 46 9 23 10 35 12 35 5z m1170 -45 c0 -5 -7 -10 -16 -10
-8 0 -12 5 -9 10 3 6 10 10 16 10 5 0 9 -4 9 -10z m-1115 -50 c-3 -5 -11 -10
-16 -10 -6 0 -7 5 -4 10 3 6 11 10 16 10 6 0 7 -4 4 -10z m48 -14 c-16 -25
-12 -38 8 -20 12 11 19 13 19 5 0 -7 -12 -24 -27 -38 l-28 -25 28 17 c16 9 32
13 35 9 4 -4 2 -9 -5 -11 -7 -2 -10 -10 -7 -17 7 -18 -14 -32 -58 -40 -42 -8
-46 -2 -21 26 14 16 15 18 0 18 -9 0 -19 -4 -22 -10 -3 -5 -11 -10 -16 -10 -6
0 -7 5 -4 10 3 6 0 10 -7 10 -9 0 -9 3 2 10 11 7 12 10 2 10 -7 0 -20 -7 -28
-15 -9 -8 -21 -15 -27 -15 -8 0 -8 3 -2 8 6 4 15 17 22 28 11 20 10 21 -10 18
-20 -4 -20 -4 -3 4 11 5 36 8 56 8 26 -1 42 5 55 20 19 22 51 22 38 0z m-299
-1 c4 -12 -3 -15 -34 -15 -41 0 -55 15 -22 23 34 9 50 7 56 -8z m370 -77 c-3
-4 -9 -8 -15 -8 -5 0 -9 4 -9 8 0 5 7 9 15 9 8 0 12 -4 9 -9z m29 -33 c31 2
35 0 26 -11 -9 -11 -8 -14 2 -14 8 0 5 -9 -10 -22 -17 -17 -25 -19 -28 -10 -3
8 -9 10 -16 4 -19 -14 -54 -20 -67 -12 -9 6 -3 13 19 24 31 16 35 41 6 29 -8
-3 -15 -1 -15 5 0 14 22 21 35 12 6 -4 27 -6 48 -5z m136 -62 c-37 -46 -44
-53 -56 -53 -22 0 -14 14 25 42 44 32 49 33 31 11z m-149 -11 c0 -4 -12 -15
-27 -25 -26 -17 -26 -18 -4 -11 20 5 23 3 17 -11 -5 -15 -2 -16 21 -11 28 6
123 14 123 10 0 -1 -20 -9 -45 -18 -25 -8 -43 -11 -40 -5 10 15 -7 11 -19 -5
-14 -18 -64 -22 -144 -12 -71 9 -74 14 -11 22 45 6 66 14 34 14 -18 0 -18 1 1
15 19 14 19 14 0 15 -32 0 -8 14 31 17 20 1 38 5 41 8 8 8 22 6 22 -3z m363 1
c-7 -2 -21 -2 -30 0 -10 3 -4 5 12 5 17 0 24 -2 18 -5z m-492 -33 c-8 -4 -21
-5 -30 -2 -12 5 -10 8 9 12 29 8 40 3 21 -10z m287 -64 c-10 -7 -18 -17 -18
-22 0 -5 -9 -15 -20 -22 -21 -12 -21 -12 -4 13 9 14 24 30 33 35 24 14 29 11
9 -4z m-63 -16 c-3 -5 -12 -10 -18 -10 -7 0 -6 4 3 10 19 12 23 12 15 0z m85
-20 c-24 -15 -36 -11 -14 4 10 8 21 12 24 10 2 -3 -2 -9 -10 -14z m60 10 c0
-5 -7 -10 -15 -10 -8 0 -15 5 -15 10 0 6 7 10 15 10 8 0 15 -4 15 -10z m-90
-140 c-8 -5 -19 -10 -25 -10 -5 0 -3 5 5 10 8 5 20 10 25 10 6 0 3 -5 -5 -10z
m270 -24 c0 -2 -7 -6 -15 -10 -8 -3 -15 -1 -15 4 0 6 7 10 15 10 8 0 15 -2 15
-4z m-556 -62 c4 -9 4 -19 1 -22 -3 -3 -5 0 -5 7 0 8 -7 10 -22 5 -20 -6 -21
-5 -9 10 17 20 27 20 35 0z m-64 -188 c0 -8 -7 -17 -16 -20 -30 -11 -37 -6
-19 14 21 23 35 26 35 6z m1555 -25 c3 -5 1 -12 -5 -16 -5 -3 -10 1 -10 9 0
18 6 21 15 7z m-1582 -26 c4 -8 3 -16 -1 -19 -4 -3 -9 4 -9 15 -2 23 3 25 10
4z m1529 -207 c2 -21 0 -38 -4 -38 -4 0 -8 21 -7 48 1 52 6 48 11 -10z m1868
-222 c0 -2 -7 -7 -16 -10 -8 -3 -12 -2 -9 4 6 10 25 14 25 6z m-4375 -116 c3
-5 12 -10 18 -10 7 0 6 4 -3 10 -13 8 -13 10 2 10 9 0 20 -5 23 -10 4 -6 16
-8 28 -5 20 5 20 5 4 -5 -22 -14 -13 -30 17 -30 12 0 25 -3 29 -6 11 -11 -5
-34 -23 -34 -19 0 -34 -37 -17 -43 6 -2 -5 -14 -24 -27 -19 -13 -36 -28 -37
-32 -2 -5 -8 -6 -13 -2 -5 3 -13 -6 -18 -19 -11 -29 -43 -61 -86 -88 -16 -10
-26 -19 -21 -19 5 0 -6 -11 -25 -23 -40 -28 -49 -27 -20 2 12 12 21 28 21 37
0 15 -2 15 -25 0 -14 -9 -30 -14 -35 -11 -6 3 -18 1 -27 -4 -14 -8 -15 -11 -3
-11 11 0 10 -3 -4 -11 -14 -9 -20 -8 -26 1 -6 9 -10 6 -15 -9 -4 -14 -15 -21
-32 -21 -26 0 -26 1 13 35 21 19 34 34 27 35 -6 0 -13 -4 -15 -8 -3 -8 -63
-52 -71 -52 -4 0 -2 41 3 50 2 3 4 11 4 18 1 7 12 18 26 25 14 7 26 21 28 31
3 16 1 16 -20 5 -12 -7 -27 -12 -31 -11 -5 1 -6 -1 -3 -6 2 -4 -11 -18 -31
-32 -27 -18 -36 -21 -43 -11 -6 10 -12 11 -30 1 -39 -21 -30 -6 16 25 24 17
44 33 44 38 0 23 188 157 271 194 24 11 49 18 56 16 6 -2 14 1 18 6 8 14 42
14 50 1z m115 -164 c0 -2 -7 -9 -15 -16 -13 -11 -14 -10 -9 4 5 14 24 23 24
12z m-550 -151 c-7 -8 -18 -15 -24 -15 -6 0 -2 7 8 15 25 19 32 19 16 0z m60
-9 c0 -2 -7 -7 -16 -10 -8 -3 -12 -2 -9 4 6 10 25 14 25 6z m2007 -70 c0 -8
-5 -12 -12 -10 -6 3 -21 -5 -33 -16 -21 -20 -106 -62 -89 -44 10 11 120 82
128 83 3 1 6 -5 6 -13z m-152 -36 c-3 -5 -12 -10 -18 -10 -7 0 -6 4 3 10 19
12 23 12 15 0z m174 7 c-2 -2 -17 -11 -34 -21 l-30 -17 24 20 c13 12 28 21 34
21 6 0 8 -1 6 -3z m-70 -50 c-2 -1 -13 -9 -24 -17 -19 -14 -19 -14 -6 3 7 9
18 17 24 17 6 0 8 -1 6 -3z m-159 -130 c0 -2 -10 -12 -22 -23 l-23 -19 19 23
c18 21 26 27 26 19z m30 -11 c0 -2 -7 -7 -16 -10 -8 -3 -12 -2 -9 4 6 10 25
14 25 6z m3463 -693 c-7 -2 -19 -2 -25 0 -7 3 -2 5 12 5 14 0 19 -2 13 -5z
m-1173 -218 c11 -13 10 -14 -4 -9 -9 3 -16 10 -16 15 0 13 6 11 20 -6z m-90
-85 c0 -5 -2 -10 -4 -10 -3 0 -8 5 -11 10 -3 6 -1 10 4 10 6 0 11 -4 11 -10z
m360 -570 c147 -52 246 -114 276 -172 22 -42 17 -55 -24 -71 -52 -21 -69 -51
-76 -131 -7 -85 -41 -149 -87 -165 -46 -16 -150 -14 -193 4 -20 8 -36 12 -36
8 0 -3 -11 4 -24 16 -22 20 -24 29 -19 71 4 31 1 50 -6 55 -9 5 -9 11 1 23 11
13 10 15 -10 10 -15 -4 -22 -2 -19 5 2 7 14 11 26 10 17 -2 21 3 21 23 0 26
-20 54 -39 54 -6 0 -11 5 -11 12 0 21 -18 -6 -22 -32 -2 -18 -8 -24 -22 -22
-14 3 -17 -1 -13 -12 7 -18 -1 -20 -22 -7 -7 5 -11 14 -7 20 5 7 1 9 -11 5
-15 -5 -16 -4 -3 5 8 6 23 8 32 5 13 -4 16 -1 12 10 -4 9 -1 16 6 16 7 0 10 7
7 15 -4 8 -2 17 3 20 18 11 10 43 -16 60 -20 13 -23 19 -13 31 9 11 8 14 -10
14 -11 0 -21 -5 -21 -12 0 -9 -3 -9 -11 -1 -6 6 -8 16 -5 22 10 16 52 13 66
-4 9 -11 16 -12 25 -5 6 5 15 7 18 3 4 -3 7 1 7 10 0 8 -6 17 -12 20 -10 3 -9
8 3 18 27 22 33 56 12 69 -15 9 -13 10 11 5 27 -6 27 -5 12 11 -24 24 -12 29
34 14 22 -7 43 -10 47 -7 3 4 -1 7 -10 7 -9 0 -17 5 -17 11 0 7 7 8 18 4 9 -4
64 -24 122 -45z m-340 6 c0 -3 -4 -8 -10 -11 -5 -3 -10 -1 -10 4 0 6 5 11 10
11 6 0 10 -2 10 -4z m30 -64 c0 -11 -7 -18 -20 -18 -18 0 -18 2 -3 18 9 10 18
18 20 18 1 0 3 -8 3 -18z m58 -31 c3 -8 -1 -12 -9 -9 -7 2 -15 10 -17 17 -3 8
1 12 9 9 7 -2 15 -10 17 -17z m-43 -90 c3 -5 1 -12 -5 -16 -5 -3 -10 1 -10 9
0 18 6 21 15 7z m67 -199 c-7 -2 -12 -12 -12 -23 0 -21 -16 -26 -23 -6 -3 6
-6 3 -6 -7 -1 -19 -1 -19 -20 0 -10 10 -16 23 -13 28 2 4 8 3 12 -4 6 -9 12
-7 26 7 11 11 26 17 33 14 10 -3 11 -6 3 -9z m-4252 -542 c0 -5 -4 -10 -10
-10 -5 0 -10 5 -10 10 0 6 5 10 10 10 6 0 10 -4 10 -10z m757 -42 c-3 -8 -6
-5 -6 6 -1 11 2 17 5 13 3 -3 4 -12 1 -19z"/>
<path d="M3870 6240 c-9 -6 -10 -10 -3 -10 6 0 15 5 18 10 8 12 4 12 -15 0z"/>
<path d="M4360 6085 c-13 -14 -31 -27 -42 -31 -10 -3 -18 -9 -18 -14 0 -11 63
25 81 46 21 26 3 25 -21 -1z"/>
<path d="M3796 6075 c-9 -26 -7 -32 5 -12 6 10 9 21 6 23 -2 3 -7 -2 -11 -11z"/>
<path d="M4490 6061 c0 -6 5 -13 10 -16 6 -3 10 1 10 9 0 9 -4 16 -10 16 -5 0
-10 -4 -10 -9z"/>
<path d="M3687 6003 c-4 -3 -7 -11 -7 -17 0 -6 5 -5 12 2 6 6 9 14 7 17 -3 3
-9 2 -12 -2z"/>
<path d="M2990 5983 c0 -4 9 -19 20 -33 19 -25 20 -25 20 -3 0 12 -9 27 -20
33 -11 6 -20 7 -20 3z"/>
<path d="M3433 5955 c-3 -9 -3 -18 -1 -21 3 -3 8 4 11 16 6 23 -1 27 -10 5z"/>
<path d="M4398 5853 c7 -3 16 -2 19 1 4 3 -2 6 -13 5 -11 0 -14 -3 -6 -6z"/>
<path d="M4246 5835 c-19 -14 -19 -15 8 -15 15 0 25 4 22 9 -4 5 0 12 6 14 9
4 8 6 -2 6 -8 0 -24 -6 -34 -14z"/>
<path d="M4308 5833 c7 -3 16 -2 19 1 4 3 -2 6 -13 5 -11 0 -14 -3 -6 -6z"/>
<path d="M4395 5780 c-16 -4 -59 -8 -95 -9 -56 -1 -62 -3 -45 -14 11 -7 44
-21 74 -31 30 -11 63 -28 73 -38 15 -15 21 -16 32 -6 17 16 1 29 -23 20 -14
-5 -14 -3 -3 11 8 9 11 21 7 27 -4 6 10 10 39 10 25 0 46 4 46 9 0 8 -56 32
-69 30 -3 -1 -19 -5 -36 -9z"/>
<path d="M4199 5700 c-20 -13 -5 -22 21 -12 18 7 20 10 8 14 -8 4 -21 2 -29
-2z"/>
<path d="M4066 5672 c-3 -5 1 -9 9 -9 8 0 12 4 9 9 -3 4 -7 8 -9 8 -2 0 -6 -4
-9 -8z"/>
<path d="M4130 5645 c-9 -10 -9 -15 -1 -15 6 0 11 4 11 9 0 5 8 12 18 14 14 4
14 5 1 6 -9 0 -22 -6 -29 -14z"/>
<path d="M4006 5634 c-17 -12 -17 -14 -4 -14 9 0 20 5 23 11 11 17 2 18 -19 3z"/>
<path d="M4210 5600 c-25 -4 -56 -12 -70 -18 -25 -11 -25 -11 8 -11 17 -1 32
4 32 9 0 6 12 9 28 9 16 -1 20 -3 10 -6 -40 -10 -10 -33 43 -33 20 0 29 5 29
16 0 9 5 12 12 8 7 -4 8 -3 4 4 -4 7 -18 10 -34 6 -26 -6 -26 -6 -7 9 22 18
18 19 -55 7z"/>
<path d="M4162 5553 c-6 -2 -10 -9 -6 -14 3 -5 -5 -9 -18 -10 -13 0 -32 -4
-43 -9 -12 -5 11 -6 60 -3 87 6 125 7 140 3 6 -1 24 -2 40 -1 61 3 0 20 -82
23 -45 1 -79 6 -77 10 6 9 5 9 -14 1z"/>
<path d="M4670 5550 c-9 -6 -10 -10 -3 -10 6 0 15 5 18 10 8 12 4 12 -15 0z"/>
<path d="M4235 5510 c-3 -5 -1 -10 4 -10 6 0 11 5 11 10 0 6 -2 10 -4 10 -3 0
-8 -4 -11 -10z"/>
<path d="M4138 5493 c6 -2 18 -2 25 0 6 3 1 5 -13 5 -14 0 -19 -2 -12 -5z"/>
<path d="M4270 5480 c-14 -3 -42 -14 -62 -23 -47 -21 -58 -22 -32 -1 18 15 18
15 -6 10 -14 -3 -33 -6 -43 -6 -16 0 -17 -2 -3 -15 8 -8 34 -15 58 -16 36 -1
39 -2 18 -9 -23 -7 -23 -8 -4 -9 12 -1 24 -7 27 -15 3 -8 23 -17 44 -19 21 -2
11 -3 -22 -1 -33 1 -54 0 -47 -3 31 -13 7 -23 -45 -18 -47 3 -52 2 -28 -5 17
-6 40 -11 53 -12 12 -1 22 -6 22 -10 0 -4 10 -8 23 -8 16 0 18 3 8 9 -9 6 -5
9 13 9 21 0 24 -3 15 -14 -6 -8 -8 -14 -3 -14 5 0 2 -5 -6 -10 -8 -5 -24 -7
-35 -4 -15 4 -14 1 5 -10 28 -17 44 -20 36 -7 -3 5 6 9 19 9 14 0 28 -4 31 -9
3 -5 -2 -9 -10 -9 -9 0 -25 -8 -35 -17 -19 -15 -19 -17 -3 -30 15 -13 15 -13
-6 -8 -16 5 -22 3 -20 -7 4 -18 19 -28 45 -28 12 0 25 -5 29 -11 5 -8 -1 -10
-19 -7 -15 3 -28 1 -29 -4 -2 -5 -14 -5 -28 1 l-25 10 25 1 25 2 -28 10 c-15
5 -25 14 -21 19 3 5 -10 8 -28 8 -23 -1 -26 -3 -10 -6 12 -2 22 -8 22 -13 0
-4 -9 -6 -20 -3 -38 10 -20 -14 20 -27 41 -13 50 -25 28 -33 -7 -2 2 -7 19
-11 52 -12 53 -29 2 -22 l-44 7 34 -16 c18 -8 40 -15 48 -15 12 0 13 -3 3 -15
-10 -12 -5 -17 26 -30 42 -17 42 -31 0 -15 -15 5 -37 10 -49 10 -18 0 -19 -2
-7 -10 8 -5 11 -10 5 -10 -5 0 -1 -8 10 -16 19 -16 19 -16 -5 -9 -14 4 -27 7
-30 7 -23 0 -30 -4 -24 -13 15 -25 -22 -26 -83 -3 -60 23 -63 23 -53 5 9 -18
8 -19 -21 -11 -30 9 -149 7 -166 -3 -4 -2 -20 -7 -35 -11 -16 -3 -28 -13 -28
-20 0 -8 -16 -21 -36 -31 -46 -22 -39 -28 17 -16 67 16 110 13 152 -9 20 -11
44 -20 52 -20 18 0 177 -71 172 -76 -2 -2 -18 0 -35 6 -20 5 -30 5 -27 -1 9
-14 -3 -11 -30 7 -14 9 -23 19 -21 23 2 3 -7 7 -21 7 -29 2 -30 4 38 -46 52
-40 61 -57 11 -22 -33 23 -59 34 -92 39 -14 2 -38 15 -55 27 -22 17 -45 24
-83 24 -55 2 -122 -19 -122 -37 0 -15 -46 -62 -53 -54 -4 3 -7 1 -7 -5 0 -9
-5 -9 -20 0 -21 13 -55 98 -39 98 13 0 11 21 -7 55 -8 16 -14 45 -12 64 7 79
-53 22 -78 -75 -13 -48 -13 -56 1 -70 8 -9 15 -29 15 -45 0 -19 5 -29 15 -29
13 0 16 -6 14 -26 0 -4 10 -12 23 -18 13 -6 23 -17 23 -23 0 -6 3 -15 7 -19 4
-4 3 -13 -3 -21 -9 -10 -7 -13 9 -13 27 0 45 -23 30 -38 -9 -9 -8 -12 5 -12 9
0 17 -6 17 -13 0 -18 66 -51 103 -50 121 1 205 74 216 186 1 11 61 8 109 -6
23 -7 39 -17 35 -21 -4 -5 17 -6 48 -4 58 5 67 -4 44 -41 -6 -11 -3 -13 16 -8
l24 6 -24 -20 c-23 -19 -23 -19 -2 -19 12 0 29 -4 39 -10 9 -5 43 -17 75 -26
53 -14 79 -29 40 -22 -10 2 -19 -4 -21 -13 -2 -12 10 -20 45 -29 l48 -13 -35
-7 -35 -6 30 -9 c17 -4 47 -17 69 -27 21 -11 35 -15 32 -9 -4 5 3 16 14 24 11
7 17 17 12 22 -4 4 3 3 15 -4 12 -6 25 -17 29 -24 5 -9 4 -9 -7 1 -22 20 -34
14 -14 -8 10 -11 13 -20 7 -20 -6 0 -15 8 -21 17 -5 10 -12 15 -15 12 -3 -3 5
-16 19 -29 14 -13 25 -18 25 -11 0 8 7 10 20 6 14 -5 20 -2 20 9 0 9 6 15 13
13 6 -1 13 7 13 18 1 11 2 26 3 34 1 7 7 11 16 7 10 -4 15 1 15 15 0 11 7 22
15 26 14 5 14 8 -2 32 -32 49 -61 109 -56 115 4 3 -6 17 -20 30 -28 26 -33 41
-19 50 15 9 12 64 -4 76 -7 7 -12 16 -9 20 3 4 -10 22 -28 40 -24 25 -27 31
-12 26 17 -5 17 -3 -4 14 -13 11 -29 20 -37 20 -8 0 -14 5 -14 11 0 5 6 7 13
3 8 -5 8 -2 -2 9 -7 9 -10 17 -5 17 5 0 -2 10 -16 21 -17 15 -19 19 -7 15 11
-3 16 -2 12 4 -3 6 -14 10 -23 11 -10 0 -12 3 -5 5 21 9 3 33 -34 45 -19 6
-32 13 -30 15 2 3 16 0 31 -5 14 -6 26 -7 26 -2 0 5 -11 12 -25 15 -32 8 -22
36 14 37 l26 1 -27 10 c-16 5 -28 14 -28 19 0 6 4 8 9 5 5 -4 17 -3 28 1 14 5
8 10 -27 19 -36 10 -39 12 -17 13 33 1 35 13 5 35 -15 10 -17 14 -5 10 13 -5
16 -2 11 10 -3 9 -17 16 -29 16 -30 0 -40 15 -22 32 12 11 12 15 -2 26 -9 7
-10 10 -3 7 10 -5 12 0 9 24 -4 24 -2 31 11 31 8 0 12 3 8 7 -4 4 -26 7 -49 6
-23 -1 -32 1 -19 4 12 2 22 9 22 15 0 6 13 8 35 4 22 -4 35 -3 35 3 0 17 -51
25 -71 12 -26 -15 -37 -14 -14 2 12 10 14 16 7 21 -7 4 -17 4 -22 1 -6 -4 -16
-3 -23 2 -7 5 -23 7 -37 3z m40 -40 c0 -13 -11 -13 -30 0 -12 8 -11 10 8 10
12 0 22 -4 22 -10z m-37 -17 c-7 -2 -19 -2 -25 0 -7 3 -2 5 12 5 14 0 19 -2
13 -5z m87 -269 l25 -15 -25 7 c-14 3 -29 10 -34 15 -16 14 6 10 34 -7z m-462
-445 c-2 -6 -8 -10 -13 -10 -5 0 -11 4 -13 10 -2 6 4 11 13 11 9 0 15 -5 13
-11z m-38 -9 c0 -5 -4 -10 -10 -10 -5 0 -10 5 -10 10 0 6 5 10 10 10 6 0 10
-4 10 -10z"/>
<path d="M4075 5450 c-3 -5 1 -10 9 -10 9 0 16 5 16 10 0 6 -4 10 -9 10 -6 0
-13 -4 -16 -10z"/>
<path d="M4095 5420 c-3 -6 1 -7 9 -4 18 7 21 14 7 14 -6 0 -13 -4 -16 -10z"/>
<path d="M4975 5390 c3 -5 11 -10 16 -10 6 0 7 5 4 10 -3 6 -11 10 -16 10 -6
0 -7 -4 -4 -10z"/>
<path d="M5041 5381 c-8 -5 -9 -11 -3 -15 5 -3 12 1 16 9 6 17 6 18 -13 6z"/>
<path d="M5000 5362 c0 -13 20 -28 50 -37 14 -4 33 -14 43 -23 9 -8 17 -11 17
-5 0 15 -35 43 -60 48 -12 2 -28 9 -36 16 -8 7 -14 7 -14 1z"/>
<path d="M5072 5360 c5 -16 56 -56 62 -49 3 3 -11 18 -31 33 -20 16 -34 23
-31 16z"/>
<path d="M3136 5317 c3 -10 9 -15 12 -12 3 3 0 11 -7 18 -10 9 -11 8 -5 -6z"/>
<path d="M3107 5284 c5 -12 3 -15 -6 -9 -8 4 -6 -4 4 -19 20 -29 30 -35 17 -8
-5 9 -7 22 -5 29 2 6 -1 14 -6 18 -7 4 -8 0 -4 -11z"/>
<path d="M4985 5259 c7 -10 66 -39 80 -39 3 0 -2 8 -12 19 -21 21 -79 39 -68
20z"/>
<path d="M5149 5237 c26 -28 31 -32 31 -19 0 4 -13 16 -28 26 l-27 19 24 -26z"/>
<path d="M3230 5111 c0 -5 5 -13 10 -16 6 -3 10 -2 10 4 0 5 -4 13 -10 16 -5
3 -10 2 -10 -4z"/>
<path d="M3820 5000 c-9 -6 -10 -10 -3 -10 6 0 15 5 18 10 8 12 4 12 -15 0z"/>
<path d="M3705 4859 c-4 -6 -14 -8 -24 -4 -14 5 -14 4 1 -11 17 -17 19 -17 38
4 16 17 17 22 6 22 -8 0 -18 -5 -21 -11z"/>
<path d="M4627 4719 c7 -7 15 -10 18 -7 3 3 -2 9 -12 12 -14 6 -15 5 -6 -5z"/>
<path d="M4418 4369 c18 -18 31 -34 29 -36 -3 -2 -22 6 -43 18 l-39 22 23 -22
c12 -12 22 -24 22 -26 0 -2 -10 -4 -22 -3 -39 1 -49 -2 -43 -12 3 -6 -4 -10
-17 -10 l-22 0 22 -16 c25 -17 47 -23 112 -29 25 -2 39 0 31 4 -9 6 -7 10 10
14 19 5 20 8 9 22 -11 13 -10 15 4 9 17 -6 21 5 9 22 -5 5 -4 6 2 2 19 -16 25
-7 10 15 -8 13 -12 26 -9 29 10 11 -31 27 -46 18 -7 -4 -24 -4 -37 1 -38 14
-39 11 -5 -22z"/>
<path d="M4534 4381 c3 -5 16 -11 28 -14 22 -6 22 -5 4 8 -22 17 -40 20 -32 6z"/>
<path d="M1865 4020 c-3 -6 1 -7 9 -4 18 7 21 14 7 14 -6 0 -13 -4 -16 -10z"/>
<path d="M1886 3975 c-3 -8 6 -15 27 -18 41 -6 42 -5 7 15 -23 13 -30 14 -34
3z"/>
<path d="M1855 3970 c-3 -5 -1 -10 4 -10 6 0 11 5 11 10 0 6 -2 10 -4 10 -3 0
-8 -4 -11 -10z"/>
<path d="M2014 3944 c-18 -14 -18 -15 4 -4 12 6 22 13 22 15 0 8 -5 6 -26 -11z"/>
<path d="M3712 3953 c-6 -2 -10 -8 -7 -13 3 -4 -4 -6 -15 -3 -11 3 -20 0 -20
-6 0 -6 -8 -11 -18 -11 -30 0 -42 -22 -42 -76 0 -84 8 -92 42 -42 39 58 80
138 71 138 -5 0 -1 5 7 10 16 10 4 12 -18 3z"/>
<path d="M2373 3873 c9 -2 23 -2 30 0 6 3 -1 5 -18 5 -16 0 -22 -2 -12 -5z"/>
<path d="M3545 3840 c3 -5 8 -10 11 -10 2 0 4 5 4 10 0 6 -5 10 -11 10 -5 0
-7 -4 -4 -10z"/>
<path d="M2126 3831 c-3 -5 5 -8 19 -8 14 0 22 3 19 8 -3 5 -11 9 -19 9 -8 0
-16 -4 -19 -9z"/>
<path d="M5190 3721 c0 -6 5 -13 10 -16 6 -3 10 1 10 9 0 9 -4 16 -10 16 -5 0
-10 -4 -10 -9z"/>
<path d="M2273 3555 c-3 -9 -3 -18 -1 -21 3 -3 8 4 11 16 6 23 -1 27 -10 5z"/>
<path d="M2348 3563 c7 -3 16 -2 19 1 4 3 -2 6 -13 5 -11 0 -14 -3 -6 -6z"/>
<path d="M2270 3500 c0 -5 5 -10 10 -10 6 0 10 5 10 10 0 6 -4 10 -10 10 -5 0
-10 -4 -10 -10z"/>
<path d="M2560 3470 c0 -6 7 -10 15 -10 8 0 15 2 15 4 0 2 -7 6 -15 10 -8 3
-15 1 -15 -4z"/>
<path d="M2310 3455 c-19 -7 -33 -14 -30 -15 23 -7 39 -7 34 1 -3 5 6 9 20 9
14 0 28 5 31 10 8 13 -12 11 -55 -5z"/>
<path d="M2805 3390 c-3 -5 -1 -10 4 -10 6 0 11 5 11 10 0 6 -2 10 -4 10 -3 0
-8 -4 -11 -10z"/>
<path d="M3260 3271 c0 -5 5 -13 10 -16 6 -3 10 -2 10 4 0 5 -4 13 -10 16 -5
3 -10 2 -10 -4z"/>
<path d="M2339 3250 c-5 -4 3 -7 20 -8 17 0 33 3 35 7 6 9 -40 9 -55 1z"/>
<path d="M2345 3142 c-11 -4 -21 -13 -22 -19 -4 -18 5 -16 29 7 12 11 20 20
17 19 -2 -1 -13 -4 -24 -7z"/>
<path d="M2550 3050 c-20 -16 -21 -20 -8 -20 10 0 22 9 28 20 13 25 11 25 -20
0z"/>
<path d="M2595 3050 c-16 -7 -17 -9 -3 -9 9 -1 20 4 23 9 7 11 7 11 -20 0z"/>
<path d="M2483 3024 c-18 -9 -33 -21 -33 -26 0 -10 56 17 65 32 8 13 6 13 -32
-6z"/>
<path d="M2687 2975 c-34 -17 -109 -76 -105 -81 4 -4 116 52 135 67 14 12 18
29 6 29 -5 0 -21 -7 -36 -15z"/>
<path d="M2660 2915 c-16 -19 -10 -19 26 0 25 13 26 15 8 15 -12 0 -27 -7 -34
-15z"/>
<path d="M2506 2854 c-9 -24 -4 -25 24 -4 24 19 24 20 4 20 -12 0 -25 -7 -28
-16z"/>
<path d="M2626 2854 c-11 -8 -16 -14 -10 -14 13 0 39 18 34 24 -3 2 -14 -2
-24 -10z"/>
<path d="M2596 2816 c-26 -14 -53 -30 -60 -37 -8 -9 -8 -10 3 -4 9 5 12 4 7
-3 -4 -7 -14 -12 -22 -12 -8 0 -12 -5 -9 -10 8 -13 52 12 103 57 44 39 42 40
-22 9z"/>
<path d="M2490 2709 c0 -5 5 -7 10 -4 6 3 10 8 10 11 0 2 -4 4 -10 4 -5 0 -10
-5 -10 -11z"/>
<path d="M2311 2674 c-19 -13 -29 -24 -23 -24 6 0 24 11 39 25 35 31 28 31
-16 -1z"/>
<path d="M2575 2680 c-3 -6 1 -7 9 -4 18 7 21 14 7 14 -6 0 -13 -4 -16 -10z"/>
<path d="M3255 2298 c-15 -25 -20 -29 -23 -15 -2 9 -7 17 -12 17 -17 0 -31
-57 -18 -75 4 -6 9 -28 11 -48 2 -20 10 -43 17 -52 8 -9 9 -15 2 -15 -6 0 -16
8 -21 18 -9 14 -12 15 -20 3 -5 -8 -7 -20 -4 -28 4 -9 0 -11 -11 -7 -9 3 -16
1 -16 -5 0 -6 5 -11 11 -11 5 0 8 -4 4 -10 -3 -5 -12 -7 -20 -3 -8 3 -15 0
-15 -7 0 -6 -4 -8 -10 -5 -5 3 -12 -12 -16 -35 -4 -22 -10 -40 -14 -40 -4 0
-13 -13 -20 -30 -7 -16 -16 -30 -21 -30 -16 0 -10 -16 16 -45 l26 -27 19 23
c11 13 24 29 29 35 6 7 6 15 -1 22 -7 7 -4 13 10 21 10 6 22 7 26 3 4 -3 4 1
0 11 -4 13 -1 17 14 17 11 0 28 8 38 17 20 20 50 40 77 49 10 4 16 12 14 18
-3 7 4 13 15 13 25 2 80 35 86 51 2 7 -6 12 -23 12 -18 0 -29 -6 -32 -20 -3
-11 -12 -20 -20 -20 -10 0 -11 4 -3 19 13 25 13 34 0 26 -5 -3 -10 -1 -10 4 0
6 6 11 14 11 7 0 16 9 19 20 6 22 -17 29 -27 8 -3 -7 -4 -1 -1 14 4 22 2 26
-10 22 -21 -9 -19 2 7 26 12 11 18 20 14 20 -5 0 -5 6 0 13 5 7 0 3 -11 -10
-22 -25 -47 -31 -44 -10 1 6 1 23 0 37 -1 19 -4 21 -10 11 -7 -11 -10 -11 -12
3 -3 13 -9 9 -24 -16z"/>
<path d="M3185 2180 c3 -5 8 -10 11 -10 2 0 4 5 4 10 0 6 -5 10 -11 10 -5 0
-7 -4 -4 -10z"/>
<path d="M4778 2063 c6 -2 18 -2 25 0 6 3 1 5 -13 5 -14 0 -19 -2 -12 -5z"/>
<path d="M4531 1891 c-8 -5 -9 -11 -3 -15 5 -3 12 1 16 9 6 17 6 18 -13 6z"/>
<path d="M3046 1805 c-4 -15 -18 -30 -32 -35 -14 -6 -28 -19 -31 -30 -3 -11
-10 -20 -15 -20 -5 0 -6 -4 -3 -10 3 -5 1 -10 -5 -10 -6 0 -8 -4 -5 -10 11
-17 25 -11 64 26 27 27 36 43 33 59 -3 17 2 24 22 29 29 7 26 26 -4 26 -11 0
-20 -10 -24 -25z"/>
<path d="M2912 1619 c2 -6 8 -10 13 -10 5 0 11 4 13 10 2 6 -4 11 -13 11 -9 0
-15 -5 -13 -11z"/>
<path d="M3150 862 c0 -5 7 -15 15 -22 8 -7 15 -9 15 -6 0 4 -7 14 -15 22 -8
9 -15 11 -15 6z"/>
<path d="M2645 6240 c3 -5 8 -10 11 -10 2 0 4 5 4 10 0 6 -5 10 -11 10 -5 0
-7 -4 -4 -10z"/>
<path d="M2435 5938 c6 -28 10 -31 53 -35 20 -2 41 -8 47 -14 13 -13 35 -11
35 4 0 15 -41 37 -70 37 -10 0 -21 4 -24 9 -3 5 -14 11 -25 14 -15 4 -19 0
-16 -15z"/>
<path d="M2625 5910 c3 -5 11 -10 16 -10 6 0 7 5 4 10 -3 6 -11 10 -16 10 -6
0 -7 -4 -4 -10z"/>
<path d="M2445 5865 c-39 -18 -22 -18 35 -1 31 10 37 15 20 15 -14 -1 -38 -7
-55 -14z"/>
<path d="M2318 5813 c6 -2 18 -2 25 0 6 3 1 5 -13 5 -14 0 -19 -2 -12 -5z"/>
<path d="M2558 5643 c7 -3 16 -2 19 1 4 3 -2 6 -13 5 -11 0 -14 -3 -6 -6z"/>
<path d="M2128 5343 c7 -3 16 -2 19 1 4 3 -2 6 -13 5 -11 0 -14 -3 -6 -6z"/>
<path d="M2063 5314 l-28 -25 33 22 c17 13 32 24 32 26 0 8 -11 1 -37 -23z"/>
<path d="M1990 5270 c-13 -8 -12 -10 3 -10 9 0 17 5 17 10 0 12 -1 12 -20 0z"/>
<path d="M2130 5188 c-14 -6 -20 -12 -14 -14 6 -3 26 2 45 10 23 10 27 15 14
15 -11 0 -31 -5 -45 -11z"/>
<path d="M1610 5109 c0 -5 5 -7 10 -4 6 3 10 8 10 11 0 2 -4 4 -10 4 -5 0 -10
-5 -10 -11z"/>
<path d="M2060 5060 c-9 -6 -10 -10 -3 -10 6 0 15 5 18 10 8 12 4 12 -15 0z"/>
<path d="M1663 5000 c-24 -11 -43 -22 -43 -25 0 -3 21 -5 48 -5 30 0 42 3 34
9 -10 6 -6 11 17 19 17 6 31 13 31 16 0 12 -46 4 -87 -14z"/>
<path d="M2105 5000 c-3 -5 -2 -10 4 -10 5 0 13 5 16 10 3 6 2 10 -4 10 -5 0
-13 -4 -16 -10z"/>
<path d="M2930 5256 c0 -2 7 -7 16 -10 8 -3 12 -2 9 4 -6 10 -25 14 -25 6z"/>
<path d="M2964 5216 c11 -9 24 -16 30 -16 12 0 7 5 -24 19 -24 11 -24 11 -6
-3z"/>
<path d="M3010 5190 c0 -5 5 -10 11 -10 5 0 7 5 4 10 -3 6 -8 10 -11 10 -2 0
-4 -4 -4 -10z"/>
<path d="M2635 5239 c4 -6 9 -8 12 -5 3 3 18 -1 34 -10 16 -8 29 -11 29 -6 0
4 -15 13 -33 20 -41 15 -50 15 -42 1z"/>
<path d="M2645 5210 c-3 -5 -1 -10 4 -10 6 0 11 5 11 10 0 6 -2 10 -4 10 -3 0
-8 -4 -11 -10z"/>
<path d="M2615 5180 c27 -12 43 -12 25 0 -8 5 -22 9 -30 9 -10 0 -8 -3 5 -9z"/>
<path d="M2551 5126 c2 -2 31 -6 64 -9 37 -3 51 -2 35 3 -25 8 -107 13 -99 6z"/>
<path d="M2522 5071 c-8 -5 4 -8 33 -9 25 -1 45 2 45 8 0 12 -60 13 -78 1z"/>
<path d="M1796 4682 c-2 -4 11 -8 30 -8 19 0 34 3 34 6 0 9 -58 11 -64 2z"/>
<path d="M1915 4550 c-3 -5 -2 -10 4 -10 5 0 13 5 16 10 3 6 2 10 -4 10 -5 0
-13 -4 -16 -10z"/>
<path d="M580 3060 c-8 -5 -10 -10 -5 -10 6 0 17 5 25 10 8 5 11 10 5 10 -5 0
-17 -5 -25 -10z"/>
<path d="M4710 1126 c0 -2 9 -6 20 -9 11 -3 18 -1 14 4 -5 9 -34 13 -34 5z"/>
<path d="M4775 960 c-3 -5 -1 -10 4 -10 6 0 11 5 11 10 0 6 -2 10 -4 10 -3 0
-8 -4 -11 -10z"/>
<path d="M4745 929 c-4 -6 -5 -12 -2 -15 2 -3 7 2 10 11 7 17 1 20 -8 4z"/>
<path d="M4707 883 c-10 -9 -9 -73 1 -73 14 0 32 23 32 41 0 19 -24 42 -33 32z"/>
<path d="M4917 870 c3 -11 9 -20 14 -20 5 0 9 9 9 20 0 11 -6 20 -14 20 -9 0
-12 -7 -9 -20z"/>
<path d="M4855 809 c-4 -6 -5 -12 -2 -15 2 -3 7 2 10 11 7 17 1 20 -8 4z"/>
<path d="M4775 740 c-3 -5 3 -15 14 -21 10 -7 17 -18 14 -25 -2 -6 0 -15 6
-19 7 -4 11 5 11 24 0 17 -5 31 -11 31 -5 0 -7 5 -4 10 3 6 -1 10 -9 10 -8 0
-18 -4 -21 -10z"/>
<path d="M4839 740 c-1 -8 0 -19 1 -25 1 -5 2 -17 3 -27 2 -24 17 -11 17 15 0
28 -19 61 -21 37z"/>
<path d="M4777 704 c-4 -4 -7 -14 -7 -23 0 -11 3 -12 11 -4 6 6 10 16 7 23 -2
6 -7 8 -11 4z"/>
</g>
</svg>
